HIERARCHY
ROOT Hips
{
	OFFSET 0.000000 0.000000 0.000000
	CHANNELS 6 Xposition Yposition Zposition Xrotation Yrotation Zrotation
	JOINT Spine
	{
		OFFSET 0.000000 0.042231 0.063346
		CHANNELS 3 Xrotation Yrotation Zrotation
		JOINT Spine1
		{
			OFFSET 0.000000 0.014667 0.083179
			CHANNELS 3 Xrotation Yrotation Zrotation
			JOINT Spine2
			{
				OFFSET 0.000000 0.007361 0.084141
				CHANNELS 3 Xrotation Yrotation Zrotation
				JOINT Spine3
				{
					OFFSET 0.000000 0.000000 0.084462
					CHANNELS 3 Xrotation Yrotation Zrotation
					JOINT Neck
					{
						OFFSET 0.000000 -0.031673 0.221713
						CHANNELS 3 Xrotation Yrotation Zrotation
						JOINT Head
						{
							OFFSET 0.000000 -0.020167 0.114371
							CHANNELS 3 Xrotation Yrotation Zrotation
							End Site
							{
								OFFSET 0.000000 0.000000 0.000000
							}
						}
					}
					JOINT RightShoulder
					{
						OFFSET -0.029161 -0.048602 0.157470
						CHANNELS 3 Xrotation Yrotation Zrotation
						JOINT RightArm
						{
							OFFSET -0.144834 -0.000000 0.000000
							CHANNELS 3 Xrotation Yrotation Zrotation
							JOINT RightForeArm
							{
								OFFSET -0.274949 -0.000000 0.000000
								CHANNELS 3 Xrotation Yrotation Zrotation
								JOINT RightHand
								{
									OFFSET -0.254725 -0.000000 0.000000
									CHANNELS 3 Xrotation Yrotation Zrotation
									JOINT RightHandEnd
									{
										OFFSET -0.068160 -0.000000 0.000000
										CHANNELS 3 Xrotation Yrotation Zrotation
										End Site
										{
											OFFSET 0.000000 0.000000 0.000000
										}
									}
									JOINT RightHandThumb1
									{
										OFFSET -0.027264 -0.045440 -0.018176
										CHANNELS 3 Xrotation Yrotation Zrotation
										End Site
										{
											OFFSET 0.000000 0.000000 0.000000
										}
									}
								}
							}
						}
					}
					JOINT LeftShoulder
					{
						OFFSET 0.029161 -0.048602 0.157470
						CHANNELS 3 Xrotation Yrotation Zrotation
						JOINT LeftArm
						{
							OFFSET 0.144834 0.000000 0.000000
							CHANNELS 3 Xrotation Yrotation Zrotation
							JOINT LeftForeArm
							{
								OFFSET 0.274949 0.000000 0.000000
								CHANNELS 3 Xrotation Yrotation Zrotation
								JOINT LeftHand
								{
									OFFSET 0.254725 0.000000 0.000000
									CHANNELS 3 Xrotation Yrotation Zrotation
									JOINT LeftHandEnd
									{
										OFFSET 0.068160 0.000000 0.000000
										CHANNELS 3 Xrotation Yrotation Zrotation
										End Site
										{
											OFFSET 0.000000 0.000000 0.000000
										}
									}
									JOINT LeftHandThumb1
									{
										OFFSET 0.027264 -0.045440 -0.018176
										CHANNELS 3 Xrotation Yrotation Zrotation
										End Site
										{
											OFFSET 0.000000 0.000000 0.000000
										}
									}
								}
							}
						}
					}
				}
			}
		}
	}
	JOINT RightUpLeg
	{
		OFFSET -0.086512 0.000000 -0.025273
		CHANNELS 3 Xrotation Yrotation Zrotation
		JOINT RightLeg
		{
			OFFSET 0.000000 0.000000 -0.433119
			CHANNELS 3 Xrotation Yrotation Zrotation
			JOINT RightFoot
			{
				OFFSET 0.000000 0.000000 -0.404688
				CHANNELS 3 Xrotation Yrotation Zrotation
				JOINT RightToeBase
				{
					OFFSET 0.000000 -0.126496 -0.046041
					CHANNELS 3 Xrotation Yrotation Zrotation
					End Site
					{
						OFFSET 0.000000 0.000000 0.000000
					}
				}
			}
		}
	}
	JOINT LeftUpLeg
	{
		OFFSET 0.086512 0.000000 -0.025273
		CHANNELS 3 Xrotation Yrotation Zrotation
		JOINT LeftLeg
		{
			OFFSET 0.000000 0.000000 -0.433119
			CHANNELS 3 Xrotation Yrotation Zrotation
			JOINT LeftFoot
			{
				OFFSET 0.000000 0.000000 -0.404688
				CHANNELS 3 Xrotation Yrotation Zrotation
				JOINT LeftToeBase
				{
					OFFSET 0.000000 -0.126496 -0.046041
					CHANNELS 3 Xrotation Yrotation Zrotation
					End Site
					{
						OFFSET 0.000000 0.000000 0.000000
					}
				}
			}
		}
	}
}
MOTION
Frames: 4
Frame Time: 0.033333
0.434083 -0.766702 0.905533 1.052500 -3.906100 -176.996500 0.146600 -3.025000 0.247100 -0.794500 -1.290100 -0.107300 5.658600 -2.557400 -1.386400 1.323800 0.216700 0.238200 -12.082000 5.605300 -3.062000 -5.818200 1.112300 -10.036600 7.308300 -14.653800 5.926900 50.677800 -34.937100 48.987800 0.000000 0.000000 18.391800 -11.163300 12.968200 -1.926800 0.000000 0.000000 0.000000 0.000000 0.000000 0.000000 10.353200 5.773900 -7.739500 62.797400 20.198300 -55.738400 0.000000 0.000000 -27.819100 -13.748800 -8.804800 0.263600 0.000000 0.000000 0.000000 0.000000 0.000000 0.000000 -0.696300 -5.601300 -31.823400 2.541700 0.000000 0.000000 -4.339800 5.615300 -5.027700 -0.157600 0.000000 0.000000 -11.244500 -11.280500 14.365100 17.997200 0.000000 0.000000 -5.326300 -0.089000 12.159300 1.074700 0.000000 0.000000 
0.429029 -0.766648 0.906356 0.927100 -3.503700 -177.148200 0.194400 -2.770700 0.237800 -0.761700 -1.235900 -0.092900 5.552500 -2.237200 -1.186400 1.293100 0.237600 0.219500 -11.790300 5.813000 -2.977200 -5.773700 1.121900 -10.238100 7.293100 -14.508300 5.925500 50.805500 -35.025600 49.298700 0.000000 0.000000 18.886100 -11.122100 13.116200 -1.852400 0.000000 0.000000 0.000000 0.000000 0.000000 0.000000 10.693200 5.530000 -7.401500 62.945200 21.288900 -56.087700 0.000000 0.000000 -28.348900 -14.029000 -8.937600 0.252900 0.000000 0.000000 0.000000 0.000000 0.000000 0.000000 -0.840400 -4.812900 -31.806500 2.676400 0.000000 0.000000 -4.245200 5.364900 -4.928600 -0.114500 0.000000 0.000000 -10.796600 -10.495400 15.044800 17.061200 0.000000 0.000000 -5.002000 -0.148700 11.938300 1.027800 0.000000 0.000000 
0.420563 -0.766496 0.907534 0.783900 -2.889600 -177.428100 0.282900 -2.397000 0.220200 -0.723200 -1.168700 -0.073800 5.405900 -1.752100 -0.863500 1.254800 0.275600 0.185400 -11.316300 6.198800 -2.780000 -5.706000 1.175800 -10.524100 7.205400 -14.268300 5.978900 51.049100 -34.901600 49.770600 0.000000 0.000000 19.831700 -11.078000 13.399200 -1.720000 0.000000 0.000000 0.000000 0.000000 0.000000 0.000000 11.131300 5.408800 -6.892000 63.314000 22.359100 -56.899700 0.000000 0.000000 -28.670700 -13.227400 -8.881700 0.375300 0.000000 0.000000 0.000000 0.000000 0.000000 0.000000 -1.051800 -3.540800 -31.746600 2.970800 0.000000 0.000000 -4.135500 4.981300 -4.748200 -0.008700 0.000000 0.000000 -10.038200 -9.193600 15.836800 15.565600 0.000000 0.000000 -4.526500 -0.367800 11.798700 0.977400 0.000000 0.000000 
0.411300 -0.766135 0.908563 0.733000 -2.294800 -177.797300 0.371600 -2.046900 0.200200 -0.693600 -1.122500 -0.057200 5.302300 -1.269300 -0.508700 1.236800 0.313200 0.155600 -10.830400 6.615900 -2.507800 -5.628100 1.279900 -10.736000 7.048700 -14.044300 6.127500 51.279100 -34.387200 50.181000 0.000000 0.000000 21.024100 -10.884600 13.735900 -1.637500 0.000000 0.000000 0.000000 0.000000 0.000000 0.000000 11.400300 5.649100 -6.437300 63.739300 22.745400 -58.017700 0.000000 0.000000 -28.409800 -11.661200 -8.379000 0.656100 0.000000 0.000000 0.000000 0.000000 0.000000 0.000000 -1.209200 -2.219500 -31.657200 3.355100 0.000000 0.000000 -4.065700 4.582200 -4.498300 0.136500 0.000000 0.000000 -9.157600 -7.835000 16.537500 14.031000 0.000000 0.000000 -4.088900 -0.740000 11.743200 0.927300 0.000000 0.000000 
